<svg xmlns="http://www.w3.org/2000/svg" xmlns:xlink="http://www.w3.org/1999/xlink" width="2000" zoomAndPan="magnify" viewBox="0 0 1500 1499.999933" height="2000" preserveAspectRatio="xMidYMid meet" version="1.0"><defs><g/><clipPath id="768e7cf82f"><path d="M 0 527 L 212 527 L 212 758 L 0 758 Z M 0 527 " clip-rule="nonzero"/></clipPath><clipPath id="35887cc393"><rect x="0" width="1500" y="0" height="848"/></clipPath></defs><rect x="-150" width="1800" fill="#ffffff" y="-149.999993" height="1799.99992" fill-opacity="1"/><rect x="-150" width="1800" fill="#ffffff" y="-149.999993" height="1799.99992" fill-opacity="1"/><g transform="matrix(1, 0, 0, 1, 0, 334)"><g clip-path="url(#35887cc393)"><g fill="#ffffff" fill-opacity="1"><g transform="translate(0.00003335, 287.708318)"><g><path d="M 18.390625 0 L 18.390625 -4.6875 C 23.921875 -6.375 27.707031 -9.984375 29.75 -15.515625 C 31.800781 -21.046875 32.828125 -31.144531 32.828125 -45.8125 L 32.828125 -206.703125 C 32.828125 -221.609375 31.800781 -231.765625 29.75 -237.171875 C 27.707031 -242.585938 23.921875 -246.140625 18.390625 -247.828125 L 18.390625 -252.515625 L 91.625 -252.515625 C 116.632812 -252.515625 136.296875 -249.023438 150.609375 -242.046875 C 164.921875 -235.078125 175.082031 -226.179688 181.09375 -215.359375 C 187.101562 -204.535156 190.109375 -193.234375 190.109375 -181.453125 C 190.109375 -157.398438 181.507812 -137.796875 164.3125 -122.640625 C 147.113281 -107.492188 121.679688 -99.921875 88.015625 -99.921875 L 62.40625 -99.921875 L 62.40625 -45.8125 C 62.40625 -31.144531 63.425781 -21.046875 65.46875 -15.515625 C 67.519531 -9.984375 71.3125 -6.375 76.84375 -4.6875 L 76.84375 0 Z M 62.40625 -105.328125 L 87.296875 -105.328125 C 110.378906 -105.328125 127.992188 -111.335938 140.140625 -123.359375 C 152.285156 -135.390625 158.359375 -151.988281 158.359375 -173.15625 C 158.359375 -186.132812 155.648438 -198.21875 150.234375 -209.40625 C 144.828125 -220.59375 136.234375 -229.671875 124.453125 -236.640625 C 112.671875 -243.617188 97.039062 -247.109375 77.5625 -247.109375 C 75.15625 -247.109375 72.566406 -247.046875 69.796875 -246.921875 C 67.035156 -246.804688 64.570312 -246.625 62.40625 -246.375 Z M 62.40625 -105.328125 "/></g></g></g><g fill="#ffffff" fill-opacity="1"><g transform="translate(199.128521, 287.708318)"><g><path d="M 11.546875 0 L 11.546875 -4.6875 C 17.078125 -6.375 20.863281 -9.984375 22.90625 -15.515625 C 24.945312 -21.046875 25.96875 -31.144531 25.96875 -45.8125 L 25.96875 -128.78125 C 25.96875 -137.195312 25.488281 -143.507812 24.53125 -147.71875 C 23.570312 -151.925781 22.007812 -154.992188 19.84375 -156.921875 C 17.675781 -158.847656 14.910156 -160.53125 11.546875 -161.96875 L 11.546875 -165.9375 L 51.21875 -183.25 L 54.109375 -180.734375 L 54.109375 -45.8125 C 54.109375 -31.144531 55.191406 -21.046875 57.359375 -15.515625 C 59.523438 -9.984375 63.253906 -6.375 68.546875 -4.6875 L 68.546875 0 Z M 18.03125 -225.09375 C 18.03125 -230.863281 19.953125 -235.671875 23.796875 -239.515625 C 27.648438 -243.367188 32.34375 -245.296875 37.875 -245.296875 C 43.644531 -245.296875 48.394531 -243.367188 52.125 -239.515625 C 55.851562 -235.671875 57.71875 -230.863281 57.71875 -225.09375 C 57.71875 -219.800781 55.789062 -215.171875 51.9375 -211.203125 C 48.09375 -207.242188 43.40625 -205.265625 37.875 -205.265625 C 32.34375 -205.265625 27.648438 -207.242188 23.796875 -211.203125 C 19.953125 -215.171875 18.03125 -219.800781 18.03125 -225.09375 Z M 18.03125 -225.09375 "/></g></g></g><g fill="#ffffff" fill-opacity="1"><g transform="translate(280.295041, 287.708318)"><g><path d="M 11.546875 0 L 11.546875 -4.6875 C 17.078125 -6.375 20.863281 -9.984375 22.90625 -15.515625 C 24.945312 -21.046875 25.96875 -31.144531 25.96875 -45.8125 L 25.96875 -128.78125 C 25.96875 -137.195312 25.488281 -143.507812 24.53125 -147.71875 C 23.570312 -151.925781 22.007812 -154.992188 19.84375 -156.921875 C 17.675781 -158.847656 14.910156 -160.53125 11.546875 -161.96875 L 11.546875 -165.9375 L 51.21875 -183.25 L 54.109375 -180.734375 L 54.109375 -149.703125 C 64.691406 -158.117188 76.59375 -165.753906 89.8125 -172.609375 C 103.039062 -179.460938 116.628906 -182.890625 130.578125 -182.890625 C 148.378906 -182.890625 162.328125 -177.71875 172.421875 -167.375 C 182.523438 -157.039062 187.578125 -141.289062 187.578125 -120.125 L 187.578125 -45.8125 C 187.578125 -31.144531 188.597656 -21.046875 190.640625 -15.515625 C 192.691406 -9.984375 196.484375 -6.375 202.015625 -4.6875 L 202.015625 0 L 145.015625 0 L 145.015625 -4.6875 C 150.546875 -6.375 154.332031 -9.984375 156.375 -15.515625 C 158.414062 -21.046875 159.4375 -31.144531 159.4375 -45.8125 L 159.4375 -112.90625 C 159.4375 -131.664062 155.46875 -146.035156 147.53125 -156.015625 C 139.601562 -165.992188 127.703125 -170.984375 111.828125 -170.984375 C 101.960938 -170.984375 92.160156 -168.394531 82.421875 -163.21875 C 72.679688 -158.050781 63.242188 -151.625 54.109375 -143.9375 L 54.109375 -45.8125 C 54.109375 -31.144531 55.191406 -21.046875 57.359375 -15.515625 C 59.523438 -9.984375 63.253906 -6.375 68.546875 -4.6875 L 68.546875 0 Z M 11.546875 0 "/></g></g></g><g fill="#ffffff" fill-opacity="1"><g transform="translate(490.967176, 287.708318)"><g><path d="M -30.296875 100.28125 C -35.109375 100.28125 -39.257812 99.554688 -42.75 98.109375 C -46.238281 96.671875 -47.984375 94.507812 -47.984375 91.625 C -47.984375 89.457031 -47.078125 86.867188 -45.265625 83.859375 C -43.460938 80.859375 -41 78.210938 -37.875 75.921875 C -34.75 73.640625 -31.265625 72.5 -27.421875 72.5 C -22.609375 72.5 -16.65625 73.097656 -9.5625 74.296875 C -2.46875 75.503906 4.804688 76.710938 12.265625 77.921875 C 20.921875 71.421875 26.453125 63.484375 28.859375 54.109375 C 31.265625 44.734375 32.46875 31.988281 32.46875 15.875 L 32.46875 -128.78125 C 32.46875 -137.195312 31.925781 -143.507812 30.84375 -147.71875 C 29.757812 -151.925781 28.195312 -154.992188 26.15625 -156.921875 C 24.113281 -158.847656 21.40625 -160.53125 18.03125 -161.96875 L 18.03125 -165.9375 L 57.359375 -183.25 L 60.609375 -180.734375 L 60.609375 -8.65625 C 60.609375 6.007812 57.78125 19.894531 52.125 33 C 46.476562 46.113281 39.023438 57.71875 29.765625 67.8125 C 20.503906 77.914062 10.640625 85.851562 0.171875 91.625 C -10.285156 97.394531 -20.441406 100.28125 -30.296875 100.28125 Z M 23.09375 -225.09375 C 23.09375 -230.863281 25.015625 -235.671875 28.859375 -239.515625 C 32.703125 -243.367188 37.390625 -245.296875 42.921875 -245.296875 C 48.691406 -245.296875 53.441406 -243.367188 57.171875 -239.515625 C 60.898438 -235.671875 62.765625 -230.863281 62.765625 -225.09375 C 62.765625 -219.800781 60.835938 -215.171875 56.984375 -211.203125 C 53.140625 -207.242188 48.453125 -205.265625 42.921875 -205.265625 C 37.390625 -205.265625 32.703125 -207.242188 28.859375 -211.203125 C 25.015625 -215.171875 23.09375 -219.800781 23.09375 -225.09375 Z M 23.09375 -225.09375 "/></g></g></g><g fill="#ffffff" fill-opacity="1"><g transform="translate(576.462543, 287.708318)"><g><path d="M 151.140625 0 C 143.929688 0 140.328125 -3.609375 140.328125 -10.828125 L 140.328125 -75.75 C 136.722656 -61.082031 131.070312 -47.734375 123.375 -35.703125 C 115.675781 -23.679688 106.71875 -14.125 96.5 -7.03125 C 86.28125 0.0625 75.15625 3.609375 63.125 3.609375 C 54.226562 3.609375 45.929688 1.804688 38.234375 -1.796875 C 30.535156 -5.410156 24.34375 -10.703125 19.65625 -17.671875 C 14.96875 -24.648438 12.625 -33.3125 12.625 -43.65625 C 12.625 -56.15625 16.347656 -66.375 23.796875 -74.3125 C 31.253906 -82.25 41.175781 -88.738281 53.5625 -93.78125 C 65.945312 -98.832031 79.238281 -103.285156 93.4375 -107.140625 L 140.328125 -119.765625 C 139.359375 -137.316406 134.546875 -150.238281 125.890625 -158.53125 C 117.234375 -166.832031 105.210938 -170.984375 89.828125 -170.984375 C 79.003906 -170.984375 68.476562 -168.394531 58.25 -163.21875 C 48.03125 -158.050781 38.351562 -149.9375 29.21875 -138.875 L 25.96875 -141.765625 C 36.3125 -154.515625 48.035156 -164.554688 61.140625 -171.890625 C 74.242188 -179.222656 88.613281 -182.890625 104.25 -182.890625 C 126.132812 -182.890625 142.25 -177.175781 152.59375 -165.75 C 162.9375 -154.332031 168.109375 -138.398438 168.109375 -117.953125 L 168.109375 -45.8125 C 168.109375 -31.144531 169.128906 -21.046875 171.171875 -15.515625 C 173.210938 -9.984375 177 -6.375 182.53125 -4.6875 L 182.53125 0 Z M 39.6875 -53.75 C 39.6875 -41.96875 43.234375 -33.007812 50.328125 -26.875 C 57.421875 -20.738281 66.132812 -17.671875 76.46875 -17.671875 C 86.09375 -17.671875 94.8125 -20.375 102.625 -25.78125 C 110.445312 -31.195312 117.125 -38.234375 122.65625 -46.890625 C 128.1875 -55.546875 132.515625 -64.925781 135.640625 -75.03125 C 138.765625 -85.132812 140.328125 -94.875 140.328125 -104.25 L 140.328125 -115.078125 L 94.875 -102.8125 C 85.976562 -100.40625 77.257812 -97.21875 68.71875 -93.25 C 60.175781 -89.28125 53.203125 -84.171875 47.796875 -77.921875 C 42.390625 -71.671875 39.6875 -63.613281 39.6875 -53.75 Z M 39.6875 -53.75 "/></g></g></g><g fill="#ffffff" fill-opacity="1"><g transform="translate(767.654702, 287.708318)"><g><path d="M 11.546875 0 L 11.546875 -4.6875 C 17.078125 -6.375 20.863281 -9.984375 22.90625 -15.515625 C 24.945312 -21.046875 25.96875 -31.144531 25.96875 -45.8125 L 25.96875 -128.78125 C 25.96875 -137.195312 25.425781 -143.507812 24.34375 -147.71875 C 23.257812 -151.925781 21.695312 -154.992188 19.65625 -156.921875 C 17.613281 -158.847656 14.910156 -160.53125 11.546875 -161.96875 L 11.546875 -165.9375 L 50.859375 -183.25 L 54.109375 -180.734375 L 54.109375 -150.0625 C 64.929688 -158.71875 76.832031 -166.351562 89.8125 -172.96875 C 102.800781 -179.582031 115.789062 -182.890625 128.78125 -182.890625 C 155.957031 -182.890625 172.671875 -171.585938 178.921875 -148.984375 C 189.742188 -157.640625 201.828125 -165.453125 215.171875 -172.421875 C 228.523438 -179.398438 241.9375 -182.890625 255.40625 -182.890625 C 272.957031 -182.890625 286.179688 -178.019531 295.078125 -168.28125 C 303.972656 -158.539062 308.421875 -143.453125 308.421875 -123.015625 L 308.421875 -45.8125 C 308.421875 -31.144531 309.503906 -21.046875 311.671875 -15.515625 C 313.835938 -9.984375 317.566406 -6.375 322.859375 -4.6875 L 322.859375 0 L 265.859375 0 L 265.859375 -4.6875 C 271.390625 -6.375 275.175781 -9.984375 277.21875 -15.515625 C 279.269531 -21.046875 280.296875 -31.144531 280.296875 -45.8125 L 280.296875 -116.515625 C 280.296875 -152.828125 266.585938 -170.984375 239.171875 -170.984375 C 228.828125 -170.984375 218.84375 -168.457031 209.21875 -163.40625 C 199.601562 -158.363281 189.863281 -151.992188 180 -144.296875 C 181.445312 -138.285156 182.171875 -131.191406 182.171875 -123.015625 L 182.171875 -45.8125 C 182.171875 -31.144531 183.191406 -21.046875 185.234375 -15.515625 C 187.273438 -9.984375 191.0625 -6.375 196.59375 -4.6875 L 196.59375 0 L 139.609375 0 L 139.609375 -4.6875 C 145.140625 -6.375 148.925781 -9.984375 150.96875 -15.515625 C 153.007812 -21.046875 154.03125 -31.144531 154.03125 -45.8125 L 154.03125 -116.515625 C 154.03125 -152.828125 140.320312 -170.984375 112.90625 -170.984375 C 102.5625 -170.984375 92.640625 -168.519531 83.140625 -163.59375 C 73.648438 -158.664062 63.972656 -152.472656 54.109375 -145.015625 L 54.109375 -45.8125 C 54.109375 -31.144531 55.128906 -21.046875 57.171875 -15.515625 C 59.222656 -9.984375 63.015625 -6.375 68.546875 -4.6875 L 68.546875 0 Z M 11.546875 0 "/></g></g></g><g fill="#ffffff" fill-opacity="1"><g transform="translate(1098.092523, 287.708318)"><g><path d="M 151.140625 0 C 143.929688 0 140.328125 -3.609375 140.328125 -10.828125 L 140.328125 -75.75 C 136.722656 -61.082031 131.070312 -47.734375 123.375 -35.703125 C 115.675781 -23.679688 106.71875 -14.125 96.5 -7.03125 C 86.28125 0.0625 75.15625 3.609375 63.125 3.609375 C 54.226562 3.609375 45.929688 1.804688 38.234375 -1.796875 C 30.535156 -5.410156 24.34375 -10.703125 19.65625 -17.671875 C 14.96875 -24.648438 12.625 -33.3125 12.625 -43.65625 C 12.625 -56.15625 16.347656 -66.375 23.796875 -74.3125 C 31.253906 -82.25 41.175781 -88.738281 53.5625 -93.78125 C 65.945312 -98.832031 79.238281 -103.285156 93.4375 -107.140625 L 140.328125 -119.765625 C 139.359375 -137.316406 134.546875 -150.238281 125.890625 -158.53125 C 117.234375 -166.832031 105.210938 -170.984375 89.828125 -170.984375 C 79.003906 -170.984375 68.476562 -168.394531 58.25 -163.21875 C 48.03125 -158.050781 38.351562 -149.9375 29.21875 -138.875 L 25.96875 -141.765625 C 36.3125 -154.515625 48.035156 -164.554688 61.140625 -171.890625 C 74.242188 -179.222656 88.613281 -182.890625 104.25 -182.890625 C 126.132812 -182.890625 142.25 -177.175781 152.59375 -165.75 C 162.9375 -154.332031 168.109375 -138.398438 168.109375 -117.953125 L 168.109375 -45.8125 C 168.109375 -31.144531 169.128906 -21.046875 171.171875 -15.515625 C 173.210938 -9.984375 177 -6.375 182.53125 -4.6875 L 182.53125 0 Z M 39.6875 -53.75 C 39.6875 -41.96875 43.234375 -33.007812 50.328125 -26.875 C 57.421875 -20.738281 66.132812 -17.671875 76.46875 -17.671875 C 86.09375 -17.671875 94.8125 -20.375 102.625 -25.78125 C 110.445312 -31.195312 117.125 -38.234375 122.65625 -46.890625 C 128.1875 -55.546875 132.515625 -64.925781 135.640625 -75.03125 C 138.765625 -85.132812 140.328125 -94.875 140.328125 -104.25 L 140.328125 -115.078125 L 94.875 -102.8125 C 85.976562 -100.40625 77.257812 -97.21875 68.71875 -93.25 C 60.175781 -89.28125 53.203125 -84.171875 47.796875 -77.921875 C 42.390625 -71.671875 39.6875 -63.613281 39.6875 -53.75 Z M 39.6875 -53.75 "/></g></g></g><g fill="#ffffff" fill-opacity="1"><g transform="translate(1289.284682, 287.708318)"><g><path d="M 11.546875 0 L 11.546875 -4.6875 C 17.078125 -6.375 20.863281 -9.984375 22.90625 -15.515625 C 24.945312 -21.046875 25.96875 -31.144531 25.96875 -45.8125 L 25.96875 -128.78125 C 25.96875 -137.195312 25.488281 -143.507812 24.53125 -147.71875 C 23.570312 -151.925781 22.007812 -154.992188 19.84375 -156.921875 C 17.675781 -158.847656 14.910156 -160.53125 11.546875 -161.96875 L 11.546875 -165.9375 L 51.21875 -183.25 L 54.109375 -180.734375 L 54.109375 -149.703125 C 64.691406 -158.117188 76.59375 -165.753906 89.8125 -172.609375 C 103.039062 -179.460938 116.628906 -182.890625 130.578125 -182.890625 C 148.378906 -182.890625 162.328125 -177.71875 172.421875 -167.375 C 182.523438 -157.039062 187.578125 -141.289062 187.578125 -120.125 L 187.578125 -45.8125 C 187.578125 -31.144531 188.597656 -21.046875 190.640625 -15.515625 C 192.691406 -9.984375 196.484375 -6.375 202.015625 -4.6875 L 202.015625 0 L 145.015625 0 L 145.015625 -4.6875 C 150.546875 -6.375 154.332031 -9.984375 156.375 -15.515625 C 158.414062 -21.046875 159.4375 -31.144531 159.4375 -45.8125 L 159.4375 -112.90625 C 159.4375 -131.664062 155.46875 -146.035156 147.53125 -156.015625 C 139.601562 -165.992188 127.703125 -170.984375 111.828125 -170.984375 C 101.960938 -170.984375 92.160156 -168.394531 82.421875 -163.21875 C 72.679688 -158.050781 63.242188 -151.625 54.109375 -143.9375 L 54.109375 -45.8125 C 54.109375 -31.144531 55.191406 -21.046875 57.359375 -15.515625 C 59.523438 -9.984375 63.253906 -6.375 68.546875 -4.6875 L 68.546875 0 Z M 11.546875 0 "/></g></g></g><g clip-path="url(#768e7cf82f)"><g fill="#ffffff" fill-opacity="1"><g transform="translate(0.00003335, 757.133778)"><g><path d="M -5.515625 0 L -5.515625 -4.21875 C -0.972656 -5.738281 3.457031 -8.71875 7.78125 -13.15625 C 12.113281 -17.59375 16.769531 -25.976562 21.75 -38.3125 L 85.71875 -196.75 C 87.664062 -201.945312 87.445312 -207.035156 85.0625 -212.015625 L 82.140625 -218.828125 L 106.5 -229.875 L 186.359375 -37.984375 C 191.335938 -25.867188 195.828125 -17.59375 199.828125 -13.15625 C 203.835938 -8.71875 207.570312 -5.738281 211.03125 -4.21875 L 211.03125 0 L 160.71875 0 L 160.71875 -4.21875 C 165.695312 -5.738281 167.75 -8.71875 166.875 -13.15625 C 166.007812 -17.59375 162.984375 -25.867188 157.796875 -37.984375 L 137.984375 -85.71875 L 46.421875 -85.71875 L 27.265625 -38.3125 C 19.046875 -17.75 20.347656 -6.382812 31.171875 -4.21875 L 31.171875 0 Z M 48.375 -90.578125 L 136.03125 -90.578125 L 91.5625 -197.40625 Z M 48.375 -90.578125 "/></g></g></g></g><g fill="#ffffff" fill-opacity="1"><g transform="translate(208.116513, 757.133778)"><g><path d="M -27.265625 90.265625 C -31.597656 90.265625 -35.332031 89.613281 -38.46875 88.3125 C -41.613281 87.007812 -43.1875 85.0625 -43.1875 82.46875 C -43.1875 80.519531 -42.375 78.191406 -40.75 75.484375 C -39.125 72.773438 -36.90625 70.394531 -34.09375 68.34375 C -31.28125 66.289062 -28.140625 65.265625 -24.671875 65.265625 C -20.347656 65.265625 -14.992188 65.800781 -8.609375 66.875 C -2.222656 67.957031 4.320312 69.039062 11.03125 70.125 C 18.832031 64.28125 23.8125 57.132812 25.96875 48.6875 C 28.132812 40.25 29.21875 28.78125 29.21875 14.28125 L 29.21875 -115.90625 C 29.21875 -123.476562 28.726562 -129.160156 27.75 -132.953125 C 26.78125 -136.742188 25.375 -139.503906 23.53125 -141.234375 C 21.695312 -142.960938 19.265625 -144.476562 16.234375 -145.78125 L 16.234375 -149.34375 L 51.625 -164.9375 L 54.546875 -162.65625 L 54.546875 -7.796875 C 54.546875 5.410156 52 17.910156 46.90625 29.703125 C 41.820312 41.503906 35.113281 51.945312 26.78125 61.03125 C 18.445312 70.125 9.570312 77.269531 0.15625 82.46875 C -9.25 87.664062 -18.390625 90.265625 -27.265625 90.265625 Z M 20.78125 -202.59375 C 20.78125 -207.789062 22.507812 -212.117188 25.96875 -215.578125 C 29.4375 -219.046875 33.660156 -220.78125 38.640625 -220.78125 C 43.828125 -220.78125 48.097656 -219.046875 51.453125 -215.578125 C 54.816406 -212.117188 56.5 -207.789062 56.5 -202.59375 C 56.5 -197.832031 54.765625 -193.664062 51.296875 -190.09375 C 47.835938 -186.519531 43.617188 -184.734375 38.640625 -184.734375 C 33.660156 -184.734375 29.4375 -186.519531 25.96875 -190.09375 C 22.507812 -193.664062 20.78125 -197.832031 20.78125 -202.59375 Z M 20.78125 -202.59375 "/></g></g></g><g fill="#ffffff" fill-opacity="1"><g transform="translate(285.064416, 757.133778)"><g><path d="M 136.03125 0 C 129.539062 0 126.296875 -3.242188 126.296875 -9.734375 L 126.296875 -68.1875 C 123.046875 -54.976562 117.957031 -42.960938 111.03125 -32.140625 C 104.101562 -21.316406 96.039062 -12.710938 86.84375 -6.328125 C 77.644531 0.0546875 67.632812 3.25 56.8125 3.25 C 48.8125 3.25 41.347656 1.625 34.421875 -1.625 C 27.492188 -4.875 21.914062 -9.632812 17.6875 -15.90625 C 13.46875 -22.1875 11.359375 -29.976562 11.359375 -39.28125 C 11.359375 -50.539062 14.710938 -59.738281 21.421875 -66.875 C 28.140625 -74.019531 37.070312 -79.863281 48.21875 -84.40625 C 59.363281 -88.957031 71.320312 -92.960938 84.09375 -96.421875 L 126.296875 -107.796875 C 125.429688 -123.585938 121.101562 -135.21875 113.3125 -142.6875 C 105.519531 -150.15625 94.695312 -153.890625 80.84375 -153.890625 C 71.101562 -153.890625 61.632812 -151.5625 52.4375 -146.90625 C 43.238281 -142.257812 34.523438 -134.957031 26.296875 -125 L 23.375 -127.59375 C 32.6875 -139.0625 43.238281 -148.097656 55.03125 -154.703125 C 66.820312 -161.304688 79.753906 -164.609375 93.828125 -164.609375 C 113.523438 -164.609375 128.023438 -159.46875 137.328125 -149.1875 C 146.640625 -138.90625 151.296875 -124.566406 151.296875 -106.171875 L 151.296875 -41.234375 C 151.296875 -28.023438 152.210938 -18.929688 154.046875 -13.953125 C 155.890625 -8.984375 159.300781 -5.738281 164.28125 -4.21875 L 164.28125 0 Z M 35.71875 -48.375 C 35.71875 -37.769531 38.910156 -29.707031 45.296875 -24.1875 C 51.679688 -18.664062 59.523438 -15.90625 68.828125 -15.90625 C 77.484375 -15.90625 85.328125 -18.335938 92.359375 -23.203125 C 99.398438 -28.078125 105.410156 -34.410156 110.390625 -42.203125 C 115.367188 -49.992188 119.265625 -58.4375 122.078125 -67.53125 C 124.890625 -76.625 126.296875 -85.390625 126.296875 -93.828125 L 126.296875 -103.578125 L 85.390625 -92.53125 C 77.378906 -90.363281 69.53125 -87.492188 61.84375 -83.921875 C 54.164062 -80.359375 47.890625 -75.757812 43.015625 -70.125 C 38.148438 -64.5 35.71875 -57.25 35.71875 -48.375 Z M 35.71875 -48.375 "/></g></g></g></g></g></svg>